<!-- Generated by IcoMoon.io -->
<svg version="1.1" xmlns="http://www.w3.org/2000/svg" width="768" height="768" viewBox="0 0 768 768">
<title></title>
<g id="icomoon-ignore">
</g>
<path fill="#000" d="M384 364.168q39.661 0 67.606-27.943t27.944-67.606-27.944-67.606-67.606-27.944-67.606 27.944-27.943 67.606 27.943 67.606 67.606 27.943zM384 0.001q111.775 0 190.197 78.422t78.422 190.197q0 55.887-27.943 128t-67.606 135.212-78.422 118.084-65.803 87.436l-28.846 30.648q-10.817-12.62-28.846-33.352t-64.902-82.929-82.028-120.788-64-132.507-28.846-129.803q0-111.775 78.422-190.197t190.197-78.422z"></path>
</svg>
